<svg xmlns="http://www.w3.org/2000/svg" viewBox="0 0 801 112.9"><defs><style>.a{fill:#fff;}</style></defs><title>HorizontalLogo-w</title><path class="a" d="M193.72,450.44V389.36h25.49c10.65,0,19,8,19,18.24A17.82,17.82,0,0,1,226.82,424l15.56,26.44h-13.6l-14.22-25H205.8v25Zm12.08-50.78v16h11.45c5.36,0,8.85-3.49,8.85-8s-3.49-7.94-8.85-7.94Z" transform="translate(-31 -358.08)"/><path class="a" d="M266.25,404.28c13.87,0,23.7,10,23.7,24.08v3.32H254.27a13.25,13.25,0,0,0,13,10.12,14.38,14.38,0,0,0,12.16-5.93l8.14,5.93c-4.65,6.19-11.63,9.77-20.21,9.77-14.13,0-25-9.95-25-23.73A23.76,23.76,0,0,1,266.25,404.28ZM254.45,423h23.7a12.37,12.37,0,0,0-12.16-8.9A11.82,11.82,0,0,0,254.45,423Z" transform="translate(-31 -358.08)"/><path class="a" d="M309,424.35l13.6-1v-1.75c0-4.45-3-7.15-8.5-7.15a21.8,21.8,0,0,0-12.25,4l-4.92-8.11a31.3,31.3,0,0,1,18.6-6c11.09,0,18.43,6.28,18.43,15.88V438a2.35,2.35,0,0,0,2.59,2.62H339v9.86h-5.45c-4.47,0-7.87-2-9.48-5.33-3.22,4-8.32,6.46-14.49,6.46-9.21,0-16-5.84-16-13.79C293.53,429.67,299.17,425.05,309,424.35Zm3.13,18.5c5.82,0,10.47-3.67,10.47-8.21v-2.88l-12,1.05c-3.93.35-5.9,1.92-5.9,4.89C304.71,440.84,307.75,442.85,312.13,442.85Z" transform="translate(-31 -358.08)"/><path class="a" d="M381.44,450.44v-4.19a23.32,23.32,0,0,1-14.93,5.41c-13.77,0-24.68-10.73-24.68-23.73s10.91-23.74,24.68-23.74a23.5,23.5,0,0,1,14.84,5.32V389.36h11.72v61.08Zm-13.95-36.21a13.74,13.74,0,1,0,14,13.7A13.84,13.84,0,0,0,367.49,414.23Z" transform="translate(-31 -358.08)"/><path class="a" d="M416.32,449.56l-19.67-44.23h12.61l12.79,30.45,12.61-30.45h12.16L424.28,458.9c-3,7.33-7,9.86-14,9.86h-6.89v-9.6h4.48c3.22,0,4.91-1.05,6.35-4.54Z" transform="translate(-31 -358.08)"/><path class="a" d="M461,431.5c.89,6.28,5.54,10.21,13.23,10.21,7,0,10.56-3.23,10.56-7.59,0-3.58-2.95-6.37-7.69-7.5L466.49,424c-11.18-2.79-16.63-8.29-16.63-17.45,0-11.08,9.39-18.24,21.64-18.24,13,0,22.09,7.94,23.79,19.55h-11.8c-1.35-6-5.37-9.77-12.08-9.77-5.45,0-9.57,2.79-9.57,7.59,0,3.92,2.86,6.19,7.69,7.41l10.56,2.71c11.71,3,16.72,8.2,16.72,17.36,0,10.38-8.85,18.32-22.63,18.32s-23.87-8.11-24.86-20Z" transform="translate(-31 -358.08)"/><path class="a" d="M526.14,404.28c13.87,0,23.7,10,23.7,24.08v3.32H514.16a13.25,13.25,0,0,0,13,10.12,14.38,14.38,0,0,0,12.16-5.93l8.14,5.93c-4.65,6.19-11.63,9.77-20.21,9.77-14.13,0-25.05-9.95-25.05-23.73A23.77,23.77,0,0,1,526.14,404.28ZM514.34,423H538a12.37,12.37,0,0,0-12.17-8.9A11.82,11.82,0,0,0,514.34,423Z" transform="translate(-31 -358.08)"/><path class="a" d="M561.38,439.09v-23.9h-9v-9.86h9V392.24H573v13.09H583.2v9.86H573v21.9c0,2.35,1.7,3.49,4.38,3.49h5.81v9.86h-9.12C565.67,450.44,561.38,445.55,561.38,439.09Z" transform="translate(-31 -358.08)"/><path class="a" d="M588.66,450.44V389.36H628.1v10.3H600.73v15.18H627.2v10H600.73v25.57Z" transform="translate(-31 -358.08)"/><path class="a" d="M636.23,405.33H648v26.43c0,5.59,3.85,9.69,9.57,9.69s9.66-3.93,9.66-9.69V405.33h11.71v45.11H667.18v-4a17.68,17.68,0,0,1-12.7,5.06c-10.82,0-18.25-7.67-18.25-17.45Z" transform="translate(-31 -358.08)"/><path class="a" d="M729.6,450.44H717.89V424c0-5.85-3.85-9.69-9.57-9.69s-9.66,3.67-9.66,9.69v26.44H686.94V405.33h11.72v3.84a17.68,17.68,0,0,1,12.7-5.06c10.82,0,18.24,7.76,18.24,17.62Z" transform="translate(-31 -358.08)"/><path class="a" d="M775.66,450.44v-4.19a23.35,23.35,0,0,1-14.94,5.41C747,451.66,736,440.93,736,427.93s10.91-23.74,24.68-23.74a23.53,23.53,0,0,1,14.85,5.32V389.36h11.71v61.08Zm-13.95-36.21a13.74,13.74,0,1,0,14,13.7A13.84,13.84,0,0,0,761.71,414.23Z" transform="translate(-31 -358.08)"/><path class="a" d="M792.65,436.21h11.09c1.16,4.54,5.28,6.46,10.28,6.46,4.3,0,6.62-1.92,6.62-4.62,0-1.84-1.52-3.41-4.65-4.19l-9.57-2.18c-8.58-2-13-6.37-13-13.26,0-8.64,7.34-14.23,17.27-14.23,11.8,0,18.95,6.81,20.3,15.45H820c-1.26-4.71-5.55-6.63-9.4-6.63s-5.72,1.83-5.72,4.18,1.88,3.93,5.55,4.8l8.85,2.1c8.5,2,12.7,6.37,12.7,13.08,0,8.12-6.8,14.31-18,14.31C801.86,451.48,794.44,444.85,792.65,436.21Z" transform="translate(-31 -358.08)"/><path class="a" d="M65.24,430.56l1.48-3.29C56.84,433.53,48.28,432,48.28,432l-1.64,3.46C53.72,439.45,65.24,430.56,65.24,430.56Z" transform="translate(-31 -358.08)"/><path class="a" d="M34.62,441.92,31,448.17s3.29,6.59,18.27,3.13c0,0,0-4.61,2.63-7.57C40.88,447.68,34.62,441.92,34.62,441.92Z" transform="translate(-31 -358.08)"/><path class="a" d="M72.64,443.73s-1.31,0-1.48-4.77c0,0-11.85,7.73-12.51,17.12,0,0,5.11,2.14,6.75,4.6C65.4,460.68,62.11,453.61,72.64,443.73Z" transform="translate(-31 -358.08)"/><path class="a" d="M90.57,408l-20.07-.71,5,15.63,6.84,1.86,1.07,4.09L79.29,431l-6.4-1.95.36-3.91L60.46,403.47l33.66-9.69-4-7.37,16.16,6.93L126,381.08l13.5-13.86v-7.28l1.6-1.42,2.49.71,4.09,1.07,3.19,7.1-7.28,1.78-13.15,17.59-19.27,15.9,1.33,17.67,27.89-2.84-5.33,41.93-4.62-29.67s-25.76,18.3-37.84-5.69Z" transform="translate(-31 -358.08)"/><path class="a" d="M91.37,428s2.31,9.59,14.92,11.55L94.39,461,61.88,471l21.5-16.34Z" transform="translate(-31 -358.08)"/><path class="a" d="M89.51,382.24l13.14,6.21,8.35-6.21-7.46-11.73s-7.64-6.75-12.61-.53A11.07,11.07,0,0,0,89.51,382.24Z" transform="translate(-31 -358.08)"/><polygon class="a" points="106.12 7.99 104.69 0 101.85 4.26 98.3 4.97 99.19 8.71 98.3 11.9 106.12 7.99"/><path class="a" d="M152.93,371h-8.35l-2.49,9.06-5.86,3.2s-2.87,5.09-2.67,6.93,2.6,5.43,4.27,6.4c2.16,1.25,7.38,2.87,9.77,2.13,3.27-1,9-5.88,10.3-9.06s.53-13.15.53-13.15Zm.19,14.19a.61.61,0,0,1-.05.12c-.7-.58-1.41-1.12-2.14-1.62a2.37,2.37,0,0,0,.1-.76,1.55,1.55,0,0,0-1-1.47,1.12,1.12,0,0,0-1.31.81,1.82,1.82,0,0,0,.54,2,4.86,4.86,0,0,1,.6.52,4.79,4.79,0,0,1,.81,4.94,3.92,3.92,0,0,1-1.86,2.25,3,3,0,0,1-2.78.05c-.06,0-.1,0-.15,0-.3.34-.61.67-.92,1l-.08.09c-.53-.65-1.08-1.26-1.65-1.84l.08-.09c.28-.29.56-.6.83-.91a.14.14,0,0,0,0-.18,4.52,4.52,0,0,1-.44-2.57,4.14,4.14,0,0,1,.53-1.61l.06-.09a24.74,24.74,0,0,1,2,1.42,1.64,1.64,0,0,0-.21.61,1.45,1.45,0,0,0,.7,1.47,1.11,1.11,0,0,0,1.45-.44,1.56,1.56,0,0,0-.2-2,5.27,5.27,0,0,1-1-1,5.33,5.33,0,0,1-.89-3.87,4.76,4.76,0,0,1,1-2.48,3.22,3.22,0,0,1,1.78-1.16,4.29,4.29,0,0,1,.64-.09c.06,0,.08,0,.09-.11.09-.51.17-1,.23-1.54v-.12c.83.33,1.65.7,2.47,1.11,0,0,0,.08,0,.13-.08.54-.17,1.08-.29,1.61a.21.21,0,0,0,.06.21,5.62,5.62,0,0,1,1.24,3.28A5.42,5.42,0,0,1,153.12,385.23Z" transform="translate(-31 -358.08)"/></svg>