<svg xmlns="http://www.w3.org/2000/svg" viewBox="0 0 1132.1 531.23"><defs><style>.cls-1{opacity:0.1;}.cls-15,.cls-2,.cls-34,.cls-42,.cls-50{fill:none;stroke-linecap:round;}.cls-2{stroke:#f1f2f2;stroke-width:1.92px;}.cls-2,.cls-34,.cls-42,.cls-50{stroke-miterlimit:10;}.cls-3{fill:#fff;}.cls-4{fill:#9ddcfd;}.cls-35,.cls-5{opacity:0.07;}.cls-6{fill:#fac590;}.cls-7{fill:#e77e36;}.cls-8{fill:#ecad6f;opacity:0.5;}.cls-9{fill:#514034;}.cls-10{fill:#b7b9bb;}.cls-11{fill:#fdfdfd;}.cls-12{fill:#c0c3c4;}.cls-13{fill:#252e33;}.cls-14{fill:#eff0f0;}.cls-15{stroke:#000;stroke-linejoin:round;stroke-width:1.29px;}.cls-16{fill:#fdc487;}.cls-17{fill:#161616;}.cls-18{fill:#272727;}.cls-19{fill:#002f7c;}.cls-20,.cls-39{opacity:0.05;}.cls-21{fill:#863f63;}.cls-22{fill:#99476c;}.cls-23{fill:#b7babc;}.cls-24{fill:#30302f;}.cls-25{fill:#cdcfd0;}.cls-26{fill:#fdfafd;}.cls-27{fill:#ecc933;}.cls-28{fill:#e7643c;}.cls-29{fill:#fae071;}.cls-30{fill:#2c2c54;}.cls-31{fill:#edede7;}.cls-32{fill:#d29c45;}.cls-33{fill:#d63f3b;}.cls-34,.cls-42{stroke:#fdfdfd;}.cls-34{stroke-width:0.93px;}.cls-36{fill:#e54242;}.cls-37{fill:#2e2e2e;}.cls-38{fill:#fdbc7b;}.cls-40{fill:#353436;}.cls-41{fill:#e3e4e5;}.cls-42{stroke-width:0.88px;}.cls-43{fill:#8c8f92;}.cls-44{fill:#f7b97d;}.cls-45{fill:#141a2c;}.cls-46{fill:#161617;}.cls-47{fill:#fda168;}.cls-48{fill:#00256c;}.cls-49{fill:#d2e1e9;}.cls-50{stroke:#dee0e1;stroke-width:0.97px;}.cls-51{fill:#192035;}.cls-52{fill:#1d1d1e;}.cls-53{fill:#d0d3ce;}.cls-54{fill:#291906;}.cls-55{fill:#b6b9bb;}.cls-56{fill:#7c7f82;}.cls-57{fill:#f09761;}.cls-58{fill:#fcca97;}.cls-59{fill:#e0b885;}.cls-60{fill:#ffc98f;}.cls-61{fill:#293947;}.cls-62{fill:#603c2e;}.cls-63{fill:#77463d;}.cls-64{fill:#f1f2f2;}</style></defs><title>success</title><g id="background"><path class="cls-1" d="M1132.1,499.23c0,6.63-165.1,32-566,32S0,505.86,0,499.23,1132.1,492.61,1132.1,499.23Z"/><path class="cls-2" d="M326.44,96H270.06a12.86,12.86,0,0,0-22.13-8.35,17.59,17.59,0,0,0-15.5-9.25,18,18,0,0,0-2.45.19,30.55,30.55,0,0,0-36.86-25.67A27.28,27.28,0,0,0,143.43,57a22.31,22.31,0,0,0-30.69,24.47c-.5,0-1-.07-1.51-.07A18.69,18.69,0,0,0,93,96H24.52"/><line class="cls-2" x1="80.24" y1="109.2" x2="159.64" y2="109.2"/><line class="cls-2" x1="136.84" y1="119.46" x2="148.04" y2="119.46"/><line class="cls-2" x1="208.84" y1="119.46" x2="290.44" y2="119.46"/><path class="cls-2" d="M1101.59,39.86H1070a14.22,14.22,0,0,0-9.44-3.58l-.3,0-3.07.06.48-3a26.6,26.6,0,0,0-50.33-15.54l-1.17,2.47-2.4-1.32a21.41,21.41,0,0,0-31.53,15.72l-.46,3.27-3.06-1.25a13.8,13.8,0,0,0-15.19,3.18H864"/><line class="cls-2" x1="913.79" y1="47.28" x2="992.01" y2="47.28"/><line class="cls-2" x1="1032.9" y1="57.21" x2="1066.38" y2="57.21"/><line class="cls-2" x1="969.05" y1="64.52" x2="1036.94" y2="64.52"/><path class="cls-2" d="M466.21,33.54H396.14a12,12,0,0,0-10.55-6.25,17.16,17.16,0,0,0-28.54-19,18.83,18.83,0,0,0-1.62-1,20.88,20.88,0,0,0-30.76,20.27h-.09a11.75,11.75,0,0,0-10.25,6H276.66"/><line class="cls-2" x1="298.26" y1="48.81" x2="371.43" y2="48.81"/><path class="cls-3" d="M145.11,439.25q0-12.67-6.48-19.15t-23.57-13.46q-31.2-11.82-44.86-27.7T56.53,341.41q0-26.19,18.58-42.08t47.21-15.88q19.08,0,34,8.05a55.92,55.92,0,0,1,23,22.71q8,14.67,8,33.33H145.68q0-14.54-6.2-22.15t-17.87-7.62q-11,0-17.09,6.48T98.39,341.7q0,8.55,6.84,15.45t24.21,14.31q30.33,11,44.08,26.92T187.26,439q0,27-17.23,42.29T123.17,496.5a80.68,80.68,0,0,1-36.6-8.26A61.88,61.88,0,0,1,60.73,464.6q-9.33-15.37-9.33-36.31h42q0,17.94,7,26.06t22.78,8.11Q145.1,462.46,145.11,439.25Z"/><path class="cls-3" d="M339.89,286.3V429.85q-.28,32.32-17.8,49.49T271.81,496.5q-33.31,0-50.91-17.37t-17.59-50.27V286.3h42.16V429q0,17.65,5.69,25.2t20.65,7.55q15,0,20.51-7.48t5.7-24.56V286.3Z"/><path class="cls-3" d="M502.2,424.58q-1.57,35.46-19.94,53.69T430.42,496.5q-35.18,0-53.9-23.14t-18.73-66V372.46q0-42.72,19.37-65.87T431,283.45q33.9,0,51.48,18.94t20,54.4h-42q-.57-21.93-6.76-30.26T431,318.2q-16.8,0-23.78,11.75t-7.41,38.66v39.17q0,30.9,6.91,42.44t23.71,11.53q16.53,0,22.79-8t7.12-29.13Z"/><path class="cls-3" d="M658.53,424.58Q657,460,638.59,478.27T586.75,496.5q-35.18,0-53.9-23.14t-18.72-66V372.46q0-42.72,19.36-65.87t53.83-23.14q33.9,0,51.49,18.94t20,54.4h-42q-.57-21.93-6.76-30.26t-22.72-8.33q-16.8,0-23.78,11.75t-7.4,38.66v39.17q0,30.9,6.9,42.44t23.71,11.53q16.53,0,22.79-8t7.12-29.13Z"/><path class="cls-3" d="M781.39,403.93H716.17v55h77.19v34.75H674.3V286.3H793.07v34.89h-76.9v49h65.22Z"/><path class="cls-3" d="M895,439.25q0-12.67-6.48-19.15T865,406.64q-31.19-11.82-44.86-27.7t-13.67-37.53q0-26.19,18.59-42.08t47.21-15.88q19.08,0,34,8.05a55.8,55.8,0,0,1,23,22.71q8,14.67,8,33.33H895.57q0-14.54-6.19-22.15t-17.88-7.62q-11,0-17.09,6.48t-6.12,17.45q0,8.55,6.84,15.45t24.21,14.31q30.33,11,44.07,26.92T937.16,439q0,27-17.24,42.29T873.07,496.5a80.62,80.62,0,0,1-36.6-8.26,62,62,0,0,1-25.85-23.64q-9.33-15.37-9.32-36.31h42q0,17.94,7,26.06t22.79,8.11Q895,462.46,895,439.25Z"/><path class="cls-3" d="M1042.5,439.25q0-12.67-6.48-19.15t-23.57-13.46q-31.19-11.82-44.86-27.7t-13.67-37.53q0-26.19,18.59-42.08t47.21-15.88q19.08,0,34,8.05a55.8,55.8,0,0,1,23,22.71q8.05,14.67,8,33.33h-41.73q0-14.54-6.19-22.15T1019,317.77q-11,0-17.08,6.48t-6.13,17.45q0,8.55,6.84,15.45t24.21,14.31q30.33,11,44.07,26.92T1084.66,439q0,27-17.24,42.29t-46.85,15.24a80.62,80.62,0,0,1-36.6-8.26,62,62,0,0,1-25.85-23.64q-9.33-15.37-9.32-36.31h42q0,17.94,7,26.06t22.78,8.11Q1042.5,462.46,1042.5,439.25Z"/><polyline class="cls-2" points="512.41 134.89 539.3 119.06 562.93 119.06 590.01 97.88 615.95 102.92 641.95 79.1 669.86 75.88"/><polyline class="cls-2" points="671.7 149.21 503.34 149.21 503.34 62.56"/><line class="cls-2" x1="641.95" y1="89.11" x2="641.95" y2="149"/><line class="cls-2" x1="539.3" y1="129.07" x2="539.3" y2="149"/><line class="cls-2" x1="590.01" y1="107.88" x2="590.01" y2="149.15"/><path class="cls-2" d="M616.88,68.49"/><path class="cls-2" d="M562.93,93.65"/><line class="cls-2" x1="654.9" y1="157.88" x2="685.04" y2="157.88"/><line class="cls-2" x1="490.7" y1="64.52" x2="470.57" y2="64.52"/></g><g id="content"><path class="cls-4" d="M762.93,438.87l-9,.86-8.66-.82c-8.8-.84-17.67-1.77-25.83,1.62l-2,.84,9.25,17.84h54.51l6.93-19h0C780.09,437,771.47,438.06,762.93,438.87Z"/><path class="cls-5" d="M762.93,438.87l-9,.86-8.66-.82c-8.8-.84-17.67-1.77-25.83,1.62l-2,.84s11.48-6.26,36.51,13.59c23.31-22.89,34.18-14.75,34.18-14.75h0C780.09,437,771.47,438.06,762.93,438.87Z"/><path class="cls-6" d="M785.82,407.64s2.67,22.79,0,25.78S767,445,767,445V407.64Z"/><path class="cls-6" d="M721.81,407.64s-1.74,22.81.72,26.53S740.1,445,740.1,445V407.64Z"/><path class="cls-7" d="M719.19,407.64l34.48,9.86,33.82-9.86-1.84-10.4a13,13,0,0,0-9.46-10.5l-22.52-5.56-22.88,5.63a12.93,12.93,0,0,0-9.39,10.11Z"/><path class="cls-1" d="M721.4,400.68a12.93,12.93,0,0,1,9.39-10.1l22.88-6.39,22.52,6.32A13,13,0,0,1,785.65,401l1.2,6.82.64-.18-1.84-10.4a13,13,0,0,0-9.46-10.5l-22.52-5.56-22.88,5.63a12.93,12.93,0,0,0-9.39,10.11l-2.21,10.72.73.21Z"/><path class="cls-7" d="M777.35,438.62s-15.87,9.48-23.48,9.15-22.28-6.4-22.28-6.4V403.71h44Z"/><path class="cls-6" d="M753.57,398.8h0a7.84,7.84,0,0,1-7.84-7.84v-5.43h15.68V391A7.84,7.84,0,0,1,753.57,398.8Z"/><path class="cls-6" d="M764.92,381.43H742.6a2.77,2.77,0,0,1-2.76-2.76v-1.74a2.77,2.77,0,0,1,2.76-2.76h23.89a1.19,1.19,0,0,1,1.19,1.19v3.31A2.76,2.76,0,0,1,764.92,381.43Z"/><path class="cls-8" d="M745.73,391.79l3.68,2.82a8.4,8.4,0,0,0,8.32,0l3.68-2.64v-4.18H745.73Z"/><path class="cls-6" d="M762.76,389.77l-5.2,3.73a7.67,7.67,0,0,1-7.59,0l-4.9-3.75a4.13,4.13,0,0,1-1.58-2.7l-1.39-9.86c-1-7.16,4.54-18,11.78-18h-.12c7.15,0,12.8,10.68,11.92,17.78l-1.23,9.94A4.13,4.13,0,0,1,762.76,389.77Z"/><path class="cls-8" d="M748.1,367.8s5.45,4.12,17.13,4.53c1.95-1.49-2-9.51-2-9.51Z"/><path class="cls-9" d="M764.64,357.1h0a7.72,7.72,0,0,0-6.48-3.54h-6.7a12.82,12.82,0,0,0-10.15,4.8c-1.1,1.41-1.85,5.09-1.63,6.76l.83,6.54,1.69,6.83a.29.29,0,0,0,.57,0,63.74,63.74,0,0,0,.18-6.77s4-2.79,5.15-3.9a52.15,52.15,0,0,0,14,2.36h2.13s.32,4.85.79,8.16a.36.36,0,0,0,.72,0l1.38-8.16c5.84-2.53,4.66-8.81,4.66-8.81l-3.25-1.18A7.75,7.75,0,0,1,764.64,357.1Z"/><polygon class="cls-10" points="777.02 448.24 781.21 440.88 781.74 438.91 726.45 438.91 726.98 440.88 730.42 447.73 777.02 448.24"/><path class="cls-10" d="M781.74,438.91H726.45c0,2.18,2.52,3.94,4.69,3.94H777.8a3.93,3.93,0,0,0,3.94-3.94Z"/><path class="cls-11" d="M778.9,418.6h-50a2.62,2.62,0,0,0-2.59,3l3.19,20.45a4.85,4.85,0,0,0,4.78,4.1h39.29a4.85,4.85,0,0,0,4.78-4.1l3.19-20.45A2.62,2.62,0,0,0,778.9,418.6Z"/><path class="cls-10" d="M777.66,446.18v.27a2.84,2.84,0,0,1-2.84,2.84H733a2.84,2.84,0,0,1-2.84-2.84v-.27h47.55"/><path class="cls-12" d="M778.9,419.36h-50a2.62,2.62,0,0,0-2.59,3l3.57,22.87a2,2,0,0,0,1.95,1.67H776a2,2,0,0,0,1.95-1.67l3.57-22.87A2.62,2.62,0,0,0,778.9,419.36Z"/><path class="cls-11" d="M756.9,434c0,1.34-1.36,2.42-3,2.42s-3-1.08-3-2.42,1.36-2.41,3-2.41S756.9,432.67,756.9,434Z"/><path class="cls-13" d="M769.3,489.66l-2,7.54a2.74,2.74,0,0,0,1,2.91l8.17,6.19a30.15,30.15,0,0,0,10.39,5.09h0a4.69,4.69,0,0,0,4.37-1.07h0a3.43,3.43,0,0,0,.15-4.92l-9.79-10.12Z"/><path class="cls-14" d="M787.41,509.26h0A30.15,30.15,0,0,1,777,504.17l-9.65-7.31-.09.34a2.74,2.74,0,0,0,1,2.91l8.17,6.19a30.15,30.15,0,0,0,10.39,5.09h0a4.69,4.69,0,0,0,4.37-1.07,3.45,3.45,0,0,0,1.11-2.76C792.17,507.78,791.55,510,787.41,509.26Z"/><path class="cls-4" d="M788.06,440.21a6.12,6.12,0,0,0-7.5,4.33l-1.64,6.12L768,491.58l4,4,12.22.36,11-40.93.48-1.77a10.63,10.63,0,0,0-7.52-13Z"/><polygon class="cls-5" points="778.92 450.66 767.97 491.58 771.93 495.56 778.92 450.66"/><path class="cls-15" d="M787.61,501.63"/><path class="cls-13" d="M738.36,489.93l2,7.54a2.78,2.78,0,0,1-1,2.92l-8.19,6.16a30.06,30.06,0,0,1-10.41,5.05h0a4.66,4.66,0,0,1-4.36-1.07h0a3.44,3.44,0,0,1-.14-4.93l9.82-10.09Z"/><path class="cls-14" d="M720.18,509.47h0a30,30,0,0,0,10.41-5.05l9.68-7.28.09.33a2.78,2.78,0,0,1-1,2.92l-8.19,6.16a30.06,30.06,0,0,1-10.41,5.05h0a4.66,4.66,0,0,1-4.36-1.07,3.44,3.44,0,0,1-1.1-2.77C715.44,508,716,510.15,720.18,509.47Z"/><path class="cls-4" d="M719.74,440.42a6.13,6.13,0,0,1,7.49,4.36l1.62,6.13,10.83,40.95-4,4-12.22.32-10.83-40.95-.47-1.78a10.63,10.63,0,0,1,7.55-13Z"/><polygon class="cls-5" points="728.85 450.9 739.68 491.86 735.71 495.82 728.85 450.9"/><path class="cls-15" d="M720,501.85"/><path class="cls-16" d="M574.14,449.46s-1.42,19.27-2.79,24.2-9.19,20.3-9.19,20.3-6,1.44-4.43-1.26c1.78-3.12,6-19.71,6-19.71l-1.16-18.93Z"/><path class="cls-16" d="M554.49,491.75h5.11l2.81.58s-.1,3.05-1.73,3.87-14.12,0-14.12,0C548.05,494.31,554.49,491.75,554.49,491.75Z"/><path class="cls-17" d="M575.1,406.34C594.27,405,611,444.11,611,444.11a12.08,12.08,0,0,1-17.19-4.73c-4.88-9.53-21.08-26.55-21.49-27.84C571.58,409.37,572.78,407.48,575.1,406.34Z"/><path class="cls-18" d="M611,444.11a12,12,0,0,1-3.8,1.56c.16-12.22-20.35-40.59-32-39.33a8.9,8.9,0,0,1,4.06-.29C598.25,409.57,611,444.11,611,444.11Z"/><path class="cls-19" d="M574.3,444.5c4.1,1.67,17.5-2.62,17.5-2.62,3.89.45,7.32-1.12,10.73,1.72,3.65,3,2.54,11.72,2.54,11.72l-1.51.74-.36,11.86a5.36,5.36,0,0,0,4.92,5.51s8,2.25,11.28,5-34.75,12.95-34.75,12.95-4.12-10.13-10-14.69-8.25-17.2-8.25-17.2a18.74,18.74,0,0,0-4.58-4.52C562.13,445.25,570.21,442.83,574.3,444.5Z"/><path class="cls-16" d="M572.88,444c.52.18,1,.37,1.42.54h0a1.94,1.94,0,0,0,2.61-1.78l.08-2.22,7.93-11.7s1.11,12.14,6.85,13.07c-1.16,6.29-3.41,10.45-5.54,14.56-4.59,8.84-12.44,8.75-14,.43C571.44,452.72,572.83,445.12,572.88,444Z"/><path class="cls-20" d="M587.24,437.61a39.3,39.3,0,0,1-6.91,7.91c-3.86,3.2-5.72,2.62-7.46.37v-1.64c0-.12,0-.22,0-.29.52.18,1,.37,1.42.54h0a1.94,1.94,0,0,0,2.61-1.78l.08-2.22,8.48-8.26A24.92,24.92,0,0,0,587.24,437.61Z"/><path class="cls-21" d="M581.44,486.63c4.35-2.56,14.54-6.68,21.31-9.31a19.18,19.18,0,0,1,17.73,1.83,11.59,11.59,0,0,1,5.28,7.24c1.61,8.39-4,15.49-4,15.49l-46.63-3.58-2.46-5.48S574.63,490.62,581.44,486.63Z"/><path class="cls-19" d="M634.52,502c2.11-.12,12.57,4.07,17.77,6,2.1.78,3.56,4.06,3.61,5s-2.27,4.52-8.18,2.29-17.34-7.84-17.34-7.84l.27-3.68S631.18,502.15,634.52,502Z"/><path class="cls-16" d="M633.21,502.49c2.68-.09,4.13.7,12.86,4.16,4.08,1.61,3.69,8-.6,6.53-7.51-2.51-8.87-3.65-12.13-4.79C631.18,505,629.62,502.61,633.21,502.49Z"/><path class="cls-22" d="M584.43,499.65c14.81-.76,51.06,2.47,51.06,2.47a4.41,4.41,0,0,1,1.86,4.07c-.15,2.91-2.25,3.23-2.25,3.23-22.67.5-30,5.19-43.65,5.43-15.25.26-20.16-4.53-20.47-6.59S568.33,500.47,584.43,499.65Z"/><path class="cls-21" d="M635.49,502.12c1.37.55,1.8,2.9,1.8,2.9-.41-.77-1.43-1.67-2-1.65-10.66.27-39.38,4.12-51.35,2.76-6.36-.73-9.76-2-11.54-3.49,1.78-1.44,5.28-2.65,12-3C599.24,498.89,634.13,501.57,635.49,502.12Z"/><path class="cls-19" d="M638.42,494.89c2.11-.13,13,2.88,17.06,6.63,2.83,2.59,3.35,5.44,3.13,6.44s-1.78,3.11-7.7.88S633.57,501,633.57,501l.28-3.67A5.52,5.52,0,0,1,638.42,494.89Z"/><path class="cls-16" d="M636.41,496.06c2.67-.09,4.12.7,12.86,4.16,4.08,1.61,3.68,8-.61,6.53-7.5-2.51-8.81-4.08-13.56-4C632,500.62,632.82,496.18,636.41,496.06Z"/><path class="cls-22" d="M591.89,489.83c13.65,1.09,21.18,6.36,43.87,6.23a3.36,3.36,0,0,1,1.14,3.5,7,7,0,0,1-1.45,3.15s-36.77,3.53-51.51,1.85c-16-1.82-13.32-7.39-12.89-9.43S576.69,488.62,591.89,489.83Z"/><path class="cls-20" d="M590.11,489.75,588.78,491l-8.57,2.89h-3.92a2.67,2.67,0,0,1-2.4-1.47c0-.09-.08-.18-.12-.27C576.54,490.56,581.63,489.22,590.11,489.75Z"/><polygon class="cls-23" points="580.26 510.34 552.14 519.51 514.97 508.01 540.27 498.83 580.26 510.34"/><polygon class="cls-24" points="568.25 512.01 551.67 517.83 521.29 508.01 535.88 502.67 568.25 512.01"/><path class="cls-25" d="M509.9,480.7l33.35,8.94a2.1,2.1,0,0,1,1.47,1.43l8.2,28.19-.78.25-43.51-37.65A1,1,0,0,1,509.9,480.7Z"/><path class="cls-12" d="M509.18,481.32l33.41,9a2.1,2.1,0,0,1,1.47,1.43l8.08,27.75L515,508l-6.34-26.15A.45.45,0,0,1,509.18,481.32Z"/><path class="cls-25" d="M580.26,510.34a3.68,3.68,0,0,1-2.5,3.48l-24.66,8.35a3.07,3.07,0,0,1-1.92,0l-34.4-10.88a2.59,2.59,0,0,1-1.81-2.47V508l37.17,11.5Z"/><path class="cls-26" d="M529.77,500.5c1.23,1.37,1.54,3.09.7,3.84s-2.51.25-3.74-1.12-1.54-3.09-.7-3.84S528.54,499.13,529.77,500.5Z"/><path class="cls-16" d="M564,498.46a3.59,3.59,0,0,1,1.26-1.59l6.36-4.51,18.47-13.51L593,456.22c3.12,2.12,8.22,1,10.6-.16-.62,3.45-4.35,24.52-8.47,29.14-3.14,3.52-20.37,10.12-20.37,10.12l-1.87,4-6.43,5.51L563,506.22a1.21,1.21,0,0,1-1.22-.21,1.17,1.17,0,0,1-.32-1.35Z"/><path class="cls-27" d="M574.71,408.18a4,4,0,0,1,3.39,4.47c-.3,2.17-2.45-.34-4.62-.64s-3.54,1.72-3.24-.45A4,4,0,0,1,574.71,408.18Z"/><path class="cls-18" d="M579.33,412.06a13.71,13.71,0,0,1,8.66,13.7c-.25,3.52-2.3,8-2.51,6.19-.06-.45-16.22,6.43-21.24,2-11.57-10.23-.52-18.3-.52-18.3A14.06,14.06,0,0,1,579.33,412.06Z"/><path class="cls-16" d="M585.84,431.63c-.11,1.58-.22,2.9-.32,3.55-.39,2.34-5.13,8.38-6,9.36a3.67,3.67,0,0,1-4.53.8s-6.4-3.58-8.71-6c-1-1-1.45-3.55-2.5-6.58-.07-.21-.59-1.76,1.83-4.34s5.86-5.38,7-8.61c6.39,2.73,7.34,7.64,9.7,6.57.14-1.72-1.73-5.25,1.32-4.86,1.57.19,3.25,5.53,1.32,7.12a7.63,7.63,0,0,1,.82,2.67.88.88,0,0,0,.07.29"/><polygon class="cls-28" points="453.05 267.2 438.45 270.08 411.24 270.93 415.63 256.58 447.46 256.58 453.05 267.2"/><rect class="cls-29" x="420.98" y="210.11" width="20.48" height="12.87"/><rect class="cls-1" x="420.98" y="210.11" width="20.48" height="12.87"/><path class="cls-10" d="M453.6,268.53l1.71-1.36a7.47,7.47,0,0,0,2.68-4.53h-51.5l0,.07a7.5,7.5,0,0,0,2.59,4.45l1.09.9Z"/><path class="cls-16" d="M456.07,236.71l2.43,19.4a6.83,6.83,0,0,1-3.69,6.93l-12.3,6.22V236.71Z"/><path class="cls-8" d="M456.07,237.64s-6.34,16.27-1.12,18.14l-12.44,14.41V237.64Z"/><path class="cls-16" d="M406.29,236.71,404.63,256a6.83,6.83,0,0,0,4.11,6.86l10.68,4.57V236.71Z"/><path class="cls-28" d="M404.61,239.39l28.21,17.94,24.5-17.94-1.57-5a15.62,15.62,0,0,0-12-12.09L431,219.53l-12.74,2.83a15.63,15.63,0,0,0-11.81,11.57Z"/><path class="cls-16" d="M437.28,220.9V217H424.65v3.94l-2.42.54v3.08a8.74,8.74,0,1,0,17.47,0v-3.14Z"/><path class="cls-29" d="M417.61,198.42v25.17a11.19,11.19,0,0,0,6.74,10.26h0v-17L421.25,200Z"/><path class="cls-1" d="M417.61,211.35v12.24a11.19,11.19,0,0,0,6.74,10.26h0a33.36,33.36,0,0,1-6.08-16Z"/><path class="cls-16" d="M421.8,210.05a2.78,2.78,0,0,1-3.31-2.12l-.3-1.38a2.77,2.77,0,0,1,2.12-3.3Z"/><path class="cls-8" d="M437.28,220.9V217H424.65v3.94l-.08,0a21.94,21.94,0,0,0,1.75,1.52s2.61,1.89,4.65,1.89,4.69-1.79,4.69-1.79a20.65,20.65,0,0,0,1.93-1.62Z"/><path class="cls-6" d="M440.6,210.45c-.51,4-2.62,6.8-5.85,9.18,0,0-2.51,1.69-4.44,1.69s-4.39-1.79-4.39-1.79c-3-2.33-5-5-5.56-8.74l-1.16-9.49a5.88,5.88,0,0,1,5.84-6.6h10.67a5.89,5.89,0,0,1,5.86,6.49Z"/><path class="cls-29" d="M417.91,199.8l1.73,6.13.43-1.58a7.22,7.22,0,0,1,5.8-5.24c3-.5,6.88-1.58,9.7-3.93h0a18.58,18.58,0,0,1,4.59,13.52l-1.69,25.15h0a16.08,16.08,0,0,0,7-10.81l.4-2.43c1.3-7.91,3-33.54-9.57-33.09h0s-5.38-3.68-12.45,0c-4.64,2.42-7.12,8-5.92,12.28"/><path class="cls-29" d="M417.91,199.8,420,208a1.19,1.19,0,0,0,1.17-1c.48-2.85.57-7.09,4.68-7.91,3-.6,6.88-1.58,9.7-3.93h0c.93-.93,2-6.34.71-7.66h0s-5.38-3.68-12.45,0c-4.64,2.42-7.12,8-5.92,12.28"/><path class="cls-1" d="M435.57,195.18s2-6.34.71-7.66h0s-5.38-3.68-12.45,0c0,0,5-2.1,8.25.07C435.51,189.9,435.57,195.18,435.57,195.18Z"/><path class="cls-30" d="M422.1,331.57s-7.81,10.51-8.57,11.77-1,3.9,1.81,4.15,7.32,1.2,10.37-3.72,4.08-7.31,4-9.3a28.53,28.53,0,0,0-.5-3.83Z"/><path class="cls-16" d="M422.49,329.84s-4,6.69-5.5,9.36c-1.18,2.11-1.95,3.23,1.44,3.53s5.7-.1,8.55-6.19a33.85,33.85,0,0,0,2-7.24Z"/><path class="cls-30" d="M462.68,311.11s8.89,4.83,10,5.56,5.84,4,3.57,6.15c-1.9,1.83-7.5,2.32-12-.53s-6-4-6.67-5.72a26.84,26.84,0,0,1-1.13-3.38Z"/><path class="cls-16" d="M461.66,309.82s5.13,3.58,7.45,5.18c1.83,1.27,5.05,3.12,2.36,4.73s-6,1.35-10.81-2.53a31.47,31.47,0,0,1-4.59-5.2Z"/><path class="cls-30" d="M428.8,282.6l10.56,3.27a10.56,10.56,0,0,0,3.15.48h0a10.65,10.65,0,0,0,10-7h0a13.69,13.69,0,0,0,.76-6l-.23-6.12-21.87,3.73Z"/><path class="cls-1" d="M428.8,282.6l10.56,3.27a10.56,10.56,0,0,0,3.15.48h0a10.65,10.65,0,0,0,10-7h0a13.69,13.69,0,0,0,.76-6l-.23-6.12-21.87,3.73Z"/><path class="cls-30" d="M464.16,309.5l-20.53-39a8,8,0,0,0-8.3-3.23l-24.09,3.64-1.44,2.73a7,7,0,0,0-.39,5.68h0a10.65,10.65,0,0,0,10,7h0a10.51,10.51,0,0,0,3.15-.48l10.56-3.27,22.35,32.12Z"/><path class="cls-1" d="M434.29,275.79c-6.54-1.79-7.34,6.43-14.37,6.71a8.88,8.88,0,0,1-8.86-10.64l.18-.93-1.44,2.73a7,7,0,0,0-.39,5.68h0a10.65,10.65,0,0,0,10,7h0a10.51,10.51,0,0,0,3.15-.48l10.56-3.27,22.35,32.12,2.39-1.44-18.63-33.47A8.25,8.25,0,0,0,434.29,275.79Z"/><path class="cls-30" d="M430.41,332.17l-9.09-1.83,4.84-45.17a6.37,6.37,0,0,1,7-5.66h0a6.38,6.38,0,0,1,5.5,4.69h0c2.11,7.93,1.31,15.08-1,22.95Z"/><path class="cls-11" d="M455.35,240.93H408.73a2.44,2.44,0,0,0-2.41,2.82l3,19.05a4.5,4.5,0,0,0,4.46,3.81h36.58a4.5,4.5,0,0,0,4.46-3.81l3-19.05A2.44,2.44,0,0,0,455.35,240.93Z"/><path class="cls-10" d="M454.19,266.61v.25a2.64,2.64,0,0,1-2.65,2.65h-39a2.65,2.65,0,0,1-2.65-2.65v-.25h44.29"/><path class="cls-12" d="M455.35,241.63H408.73a2.44,2.44,0,0,0-2.41,2.82l3.32,21.31a1.84,1.84,0,0,0,1.82,1.55h41.16a1.84,1.84,0,0,0,1.82-1.55l3.32-21.31A2.44,2.44,0,0,0,455.35,241.63Z"/><ellipse class="cls-11" cx="432.04" cy="255.28" rx="2.81" ry="2.25"/><path class="cls-7" d="M337.07,494.87s4.16,2.83,11.65,6.82c1.63.88,3.68,2,5.64,3,2.71,1.43,2.51,2.38,2.13,3.69a7.52,7.52,0,0,1-.57,1.36c-1.27,2.51-9.42,2.27-12.1,1.48s-11.17-4.79-11.34-6.45c-.1-.93-1.1-5.1.31-8.42C333.9,493.73,337.07,494.87,337.07,494.87Z"/><path class="cls-31" d="M332.48,504.77c.17,1.66,8.66,5.67,11.34,6.45s10.83,1,12.1-1.48a7.68,7.68,0,0,0,.53-1.21c-1.37,1.51-4.54,2.85-11.82,1.86-4.83-1.21-8.82-4.63-12.41-7.3C332.33,503.88,332.45,504.48,332.48,504.77Z"/><path class="cls-1" d="M348.7,511.27c-1.53-.84-7.63-3.72-9.86-8.11-1.69-3.35-1.38-3.39-1.38-3.39s-1.69-.28-3.44,3.1c-.24.63-.88.85-1.7.85.07.47.14.84.16,1,.17,1.66,8.66,5.67,11.34,6.45a20.9,20.9,0,0,0,5.61.54A5.47,5.47,0,0,0,348.7,511.27Z"/><path class="cls-32" d="M246,429.73l.09,12.55a21,21,0,0,0,3.54,11.51h0a21,21,0,0,0,9.79,7.86l32.94,13.89L332.06,506a13.41,13.41,0,0,0,10.22-8.54s-32.69-30-35.89-32.27l-32.19-24-.85-9.76Z"/><path class="cls-5" d="M337.68,503.57,299,473.84s-33.32-13.21-41.5-16.6S247.3,437.1,247.3,437.1l-1.24-.17,0,5.35a21,21,0,0,0,3.54,11.51h0a21,21,0,0,0,9.79,7.86l32.94,13.89L332.06,506A13,13,0,0,0,337.68,503.57Z"/><path class="cls-5" d="M317.25,494.63h0L332.06,506a13.18,13.18,0,0,0,6.68-3.3l-2.49-10.76-.29-.27c-5.66-5.18-14-12.81-20.47-18.58Z"/><polygon class="cls-5" points="292.95 455.18 274.2 441.22 291.83 454.77 292.95 455.18"/><polygon class="cls-5" points="271.79 435.37 274.2 441.22 273.61 434.39 271.79 435.37"/><polygon class="cls-33" points="334.38 502.37 331.42 493.31 323.76 494.46 324.49 506.1 333.29 508.06 334.38 502.37"/><path class="cls-7" d="M334.15,500.23a1,1,0,0,1,1.28.87,7.89,7.89,0,0,0,.5,2.6c2.35,4.63,8.77,7.67,10.39,8.55s2.63,2.46,2.07,3.41-.76,4.51-17.38-1.41c-5.38-1.92-9.67-4-9.67-4a65.1,65.1,0,0,1,1.2-8.38c2.14-.08,3.12,1.54,5.15,2.54a2.16,2.16,0,0,0,3.15-1A6.12,6.12,0,0,1,334.15,500.23Z"/><path class="cls-34" d="M334.44,506.49a9.18,9.18,0,0,0,2.53-1.35"/><path class="cls-34" d="M336.33,507.43a5.07,5.07,0,0,0,1.77-.88"/><path class="cls-34" d="M338,508.45c1.06-.32,1.28-.69,1.28-.69"/><path class="cls-34" d="M339.63,509.35a3.26,3.26,0,0,0,1-.6"/><path class="cls-31" d="M348.38,515.67c-.08.14-1.49,2.21-13.56-1.86a125.06,125.06,0,0,1-13.3-5.48c-.12,1.16-.18,1.94-.18,1.94s4.29,2.06,9.67,4C347.59,520.15,347.83,516.63,348.38,515.67Z"/><path class="cls-32" d="M279.07,431.43l42.47,14.67a7.63,7.63,0,0,1,4.77,5l8.33,47.87a40.47,40.47,0,0,1-7.24,3.28,24.83,24.83,0,0,1-6.22,1.29l-8.41-41.2-20.94-7.54L274.2,441.22l-2.41-5.85Z"/><g class="cls-35"><path d="M315.87,460.14l-36-16.36-1.67.49,13.66,10.5,20.94,7.54,8.41,41.2a24.83,24.83,0,0,0,6.22-1.29Z"/></g><path class="cls-36" d="M250.29,374l16.4,2c5.73,0,14.75,3.58,15.34,15.94.12,2.42-5.91,15.14-5.91,15.14l.69,11.63s6.12,13.6,6.07,13.61-6.44,2.78-10,7.77c-2.93,4.12-25.28,4.12-27.68,1.53-.45-.48-.09-10.66-.91-13-3.56-10.42-10.67-26.1-10.67-26.1L232.2,402s-1.89-12-1.64-13.58C231.34,383.5,239.89,375.51,250.29,374Z"/><path class="cls-5" d="M253.66,424.49c-5.27-32.92-7-26.65-7-26.65l1.29,6-3.77,24.33,0,.15c.47.84.62,3.92.7,6.91a4.37,4.37,0,0,0,2.83,4l11,4.17c6.3-.18,12.69-1.21,14.17-3.28a19.22,19.22,0,0,1,3-3.25C264.5,430.23,255.61,425.68,253.66,424.49Z"/><path class="cls-18" d="M275.49,352.73a7.29,7.29,0,0,0,5.47-8c-.51-5.36-4.19-3.85-4.19-3.85s-1.65,0-4.07-2.05c-6.73-5.62-15.85-4.9-21.81,1.49s-.47,22.66-.75,26.49C258.05,376.08,275.49,352.73,275.49,352.73Z"/><path class="cls-37" d="M268.43,343.46c7.14,2.27,8.34-2.54,8.34-2.54s3.68-1.51,4.19,3.85a7.29,7.29,0,0,1-5.47,8s-2,1.64-4.77,3.85l-11.07-5.51S261.29,341.19,268.43,343.46Z"/><path class="cls-38" d="M268.94,351.24c-3.68-2-3.33-2.29-6.72-2.69-4.28-.51-5.22,13.77-5.22,13.77l-2-.55s-.36-6.52-.42-6.45c-2.74-2.64-4.77,2.56-2.49,5.37.34,5.29.1,6.33.1,6.33l-3.7,8.24c-.18,1.2,8.3,8.75,15.1,9s5.1-8.14,3.14-8.27a2.9,2.9,0,0,1-2.59-2l0-.05.09.05c2,.82,3.7.81,4.86-1,.67-1,3.91-6.8,4.35-7.84.92-2.17,2.11-12.46,2.11-12.46S274.35,354.16,268.94,351.24Z"/><g class="cls-39"><path d="M268.35,378.77c-.23-1.49-.93-2.7-1.66-2.75a2.9,2.9,0,0,1-2.59-2l0-.05.09.05-9.7-4.92S258.15,380,268.35,378.77Z"/></g><path class="cls-20" d="M273.36,353h0s-1.19,10.29-2.1,12.46c-.44,1-3.88,8-4.56,9.07A3,3,0,0,0,269,373c.67-1,3.91-6.8,4.35-7.84.92-2.17,2.11-12.46,2.11-12.46S275,353.3,273.36,353Z"/><polygon class="cls-10" points="260.02 448.5 284.39 459.29 315.91 441.12 291.29 431.78 260.02 448.5"/><path class="cls-40" d="M274.26,451.45l10.95,4.82a.8.8,0,0,0,.72,0l24.68-13.76a.82.82,0,0,0-.15-1.49l-12.9-4.13a.82.82,0,0,0-.65.07L274.18,450A.82.82,0,0,0,274.26,451.45Z"/><path class="cls-41" d="M284.39,459.29,260,448.5h0a3,3,0,0,0,1.77,2.38l21.53,9.54a2.76,2.76,0,0,0,2.5-.14l29-16.89a2.31,2.31,0,0,0,1.13-2.27Z"/><polygon class="cls-41" points="284.31 437.38 289.19 439.72 280.57 444.5 275.74 442.15 284.31 437.38"/><path class="cls-38" d="M283,429.31l-1.73,5.41,1.78,4.83s1.54-.28,1-2.16a3.86,3.86,0,0,1,0-2.84l2.11,2.17a1,1,0,0,1,.29.74c0,.81,0,2.41-.05,3.32a1.84,1.84,0,0,0,.6,1.42,1.27,1.27,0,0,0,1.18.31c.13-.73.43-5.16.43-5.16l.19,4.77a1.28,1.28,0,0,0,1,1.18l.64.16.48-3H291a1.58,1.58,0,0,0,1.46-1.37l.19-1.4.43-.54a1.62,1.62,0,0,0,.33-1l-.36-2.61a1.9,1.9,0,0,0-.6-1.15L288,428.26Z"/><path class="cls-31" d="M284.39,459.29l-.47-.21,11.36-26.77a2.16,2.16,0,0,1,1.31-1.25l26.48-12.3a1.62,1.62,0,0,1,1.37.14l.21.12Z"/><path class="cls-12" d="M284.39,459.29l11.36-26a3.12,3.12,0,0,1,1.82-1.74L324.15,419a.54.54,0,0,1,.69.72l-8.93,21.45Z"/><path class="cls-11" d="M309.16,436.89a4.91,4.91,0,0,1-2.77,3.54c-1.4.62-2.44,0-2.32-1.3a4.88,4.88,0,0,1,2.77-3.54C308.24,435,309.28,435.56,309.16,436.89Z"/><path class="cls-38" d="M233.64,402.5c.76,6.85,7.83,23,8.74,25.2a18.38,18.38,0,0,1,1.49,4.92,3.61,3.61,0,0,0,2.19,2.94c1.32.6,4.55,3.55,8.36,4.5a91,91,0,0,0,17,2.21l3.22-4.15s-18.14-8.38-21-11a6.24,6.24,0,0,1-2.1-4.67c0-2.46-1.78-12.54-3.64-18.61C247.93,403.84,239.33,404.52,233.64,402.5Z"/><path class="cls-38" d="M277.61,395.74s1.77-1.47,4.42-3.78c1,4,.67,6.83,1.43,11.55.79,3.76.24,5.85,1.21,9.7,3.46,5.35,3.78,16.24,3.78,16.24s-3.33,4.2-5.33.65c-2.76-4.9-6.31-11.37-6.31-11.37l-.69-11.63S278.17,400.36,277.61,395.74Z"/><path class="cls-20" d="M277.51,406.93s1.79-7.66,1.58-12.44c-.93.8-1.48,1.25-1.48,1.25.56,4.62-1.49,11.36-1.49,11.36l.69,11.63s3.55,6.47,6.31,11.37c-1.79-5.11-4.93-11.54-4.93-11.54Z"/><path d="M266.69,374.52"/><path class="cls-38" d="M274.65,438.12l9.11,2.48a2.54,2.54,0,0,1,1.51,1.11l2.52,4a.28.28,0,0,1-.16.42h0a1.83,1.83,0,0,1-1.91-.62l-1.86-2.29-2.45-.49,3.39,3.09,2.38,3.63a.2.2,0,0,1-.07.28h0a1.73,1.73,0,0,1-2.17-.29h0l-.12,0a1.94,1.94,0,0,1-2.23-.44l-2-2.13-1.61-.77,2.83,3.66h0a1.73,1.73,0,0,1-2-.19l-2.59-2.2-2.13-.58h-.05A7.7,7.7,0,0,1,270,442l-.47-1.34Z"/><path class="cls-42" d="M339.86,503.55a7.89,7.89,0,0,0,3.63-4.75"/><path class="cls-42" d="M342.11,504.25a8.6,8.6,0,0,0,3.29-4.49"/><path class="cls-42" d="M344.2,504.72a9.2,9.2,0,0,0,2.91-3.89"/><path class="cls-42" d="M346.58,504.7a8.89,8.89,0,0,0,2-2.79"/><polygon class="cls-41" points="241.41 284.23 236.78 284.34 250.78 255.12 256.44 254.1 241.41 284.23"/><polygon class="cls-31" points="237.78 283.33 250.5 256.76 254.87 256.22 241.41 283.2 237.78 283.33"/><path class="cls-43" d="M256.83,254.29h0a1.58,1.58,0,0,1,.7,2.11L243.9,283.72a1.58,1.58,0,0,1-2.11.71h0Z"/><rect class="cls-31" x="232.28" y="269.04" width="33.67" height="0.43" transform="translate(-103.03 371.99) rotate(-63.49)"/><path class="cls-43" d="M243.48,284.1H207.85a2.27,2.27,0,0,0,2.27,2.26h31.1A2.26,2.26,0,0,0,243.48,284.1Z"/><path class="cls-31" d="M207.91,284.58h35.52a2.44,2.44,0,0,0,0-.48H207.85A1.86,1.86,0,0,0,207.91,284.58Z"/><polygon class="cls-14" points="240.35 277.96 239.71 279.3 243.28 279.45 244.02 277.96 240.35 277.96"/><polygon class="cls-14" points="249.59 258.68 253.75 258.45 254.87 256.22 250.5 256.76 249.59 258.68"/><polygon class="cls-14" points="242.06 281.9 242.81 280.4 239.21 280.34 238.46 281.9 242.06 281.9"/><polygon class="cls-14" points="241.54 275.49 240.93 276.75 244.62 276.75 245.28 275.43 241.54 275.49"/><polygon class="cls-10" points="249.74 259.74 244.23 270.94 246.99 270.94 252.8 259.5 249.74 259.74"/><polygon class="cls-14" points="242.73 273 242.13 274.26 245.87 274.26 246.53 272.94 242.73 273"/><path class="cls-17" d="M204.79,216.19c-6.61,5.63-.73,14.43-11.87,20-9.54,4.8-8.18,10.85-6.75,13.84-10.81,0-11.46-20-10.67-22.75S186.17,213.76,204.79,216.19Z"/><path class="cls-19" d="M146.05,274.59c.28,5.73,28.15,14.46,36.31,25.41,1.39,1.86,2.06,7.56-.8,10.74l-30,35.68L149.43,341a81.68,81.68,0,0,0,7.65-14.73c5.87-15.53,10.43-16.11,11.75-17.56,1.59-1.72-3.39-2-8.44-4.18s-23.52-9.31-32.17-18.73C121,269.83,145.75,268.6,146.05,274.59Z"/><path class="cls-1" d="M146.05,274.59c.28,5.73,28.15,14.46,36.31,25.41,1.39,1.86,2.06,7.56-.8,10.74l-30,35.68L149.43,341a81.68,81.68,0,0,0,7.65-14.73c5.87-15.53,10.43-16.11,11.75-17.56,1.59-1.72-3.39-2-8.44-4.18s-23.52-9.31-32.17-18.73C121,269.83,145.75,268.6,146.05,274.59Z"/><path class="cls-44" d="M164.19,251.05a92.47,92.47,0,0,0-3.85,18l9.11,17.31-3.65,1.44s-11.44-12.48-13-14.7,2.74-26.89,2.74-26.89Z"/><path class="cls-31" d="M164.19,251.05a92.47,92.47,0,0,0-3.85,18,23.53,23.53,0,0,0-7.9.84c.2-7.25,3.08-23.68,3.08-23.68Z"/><path class="cls-4" d="M164.19,251.05a92.47,92.47,0,0,0-3.85,18,23.53,23.53,0,0,0-7.9.84c.2-7.25,3.08-23.68,3.08-23.68Z"/><path class="cls-5" d="M164.19,251.05a92.47,92.47,0,0,0-3.85,18,23.53,23.53,0,0,0-7.9.84c.2-7.25,3.08-23.68,3.08-23.68Z"/><path class="cls-44" d="M168.78,285.62l7.94,3.77a1.2,1.2,0,0,1,.52.5l3,6.71a.45.45,0,0,1-.61.59,4.5,4.5,0,0,1-1.75-1.4h0l-1.63-2.33a28.64,28.64,0,0,0-3.33-2.34c-2.44.61,2.26,3.59.92,4.72l-3.67-2.69-4.41-5.33Z"/><path class="cls-20" d="M168.83,308.75c.44-.47.33-.8-.14-1.08a41.93,41.93,0,0,0,5.22,1.09c1.58.11-5.71.34-8.52,2.73C167.05,309.86,168.25,309.39,168.83,308.75Z"/><path class="cls-16" d="M149.43,341s-2.12.89-3.39,1.59c-2.74,1.52,5.12,18.57,5.94,13.24-.55-2.19-.41-9.45-.41-9.45Z"/><path class="cls-30" d="M152,355.87c-2.35,2.69-5.44-11.23-3.31-14.5-1.27-.73-3.7.36-4.26,2.17s2.33,15.34,6.08,16.94C153.47,361.33,152.28,357.81,152,355.87Z"/><path class="cls-16" d="M151.29,374a2.75,2.75,0,0,1-.59,1.12c-.39.47.1,2.26,0,2.78-.87,3.32,18.6,10,15,5.3-2.14-1.22-7.75-6.59-8.73-9.27C156.06,374.44,151.29,374,151.29,374Z"/><path class="cls-30" d="M165.65,383.19c2.09,3.38-12.18-.19-15-8.08-1.54.46-1.56,2.95-.55,4.76s13.93,9.75,18,8C171.11,386.13,167.42,384.42,165.65,383.19Z"/><path class="cls-19" d="M124.32,263.08l22.51,11.51s-6.17,3.29-1.08,15c4.49,10.32,10.52,29.93,10.65,36.31,0,0,.92,45.58,1.92,47.21s-7,1.88-8.41,1.2c.66-8.13-5.94-24.32-6.42-31.18-.38-5.5.85-12.68.76-15.31s-9.37-16.11-12.64-21.13c-3.11-4.78-6.89-15.31-10.91-18.12a13.1,13.1,0,0,1-5-9.22C114.72,268.14,124.32,263.08,124.32,263.08Z"/><path class="cls-16" d="M175.72,219.64l2.57-2,5.52,7.72a15.69,15.69,0,0,0-6,4.24c-3.38,4.23-2.8,5.57-3.24,8.94a69.08,69.08,0,0,0-.39,7.4s-4.59,1.51-4.43-16.85a31.11,31.11,0,0,1,.31-4.64C169.68,223.78,175.72,219.64,175.72,219.64Z"/><path class="cls-4" d="M135.56,254c7-12.3,7.37-14.8,13.09-23.39,5-7.55,15.79-12.18,18.94-10.77,1,1.16,1.93,2.26,2.75,3.29-.33,1.17,2,2.87,1.63,5.68-2.34,16.24,2.23,17,2.23,17h0c.17,3,0,6.16-.86,7.74-1.22,2.32-4.61,5.12-10,4.42-3-.4-3.47-1.65-6.35,2.44-4.83,6.83-6.13,7.88-10.21,15.83a105.28,105.28,0,0,1-23-13.62.94.94,0,0,1,.33-1.65C128,260,133,258.63,135.56,254Z"/><path class="cls-20" d="M183.63,232.38a15.66,15.66,0,0,0-7.2,1.39,44.92,44.92,0,0,1,1.15-7.05,12.57,12.57,0,0,1,1-2.85l3.19-.8,1.83,9.31Z"/><path class="cls-16" d="M201.17,216c1,3.62-2.39,4.62-3.32,7.92-.56,2-.6,3.61-1,4.08a55.36,55.36,0,0,1-7.29,5.94c-1.38.82-4.91.21-10.72-8.69C170,211.74,198.83,207.59,201.17,216Z"/><path class="cls-20" d="M156,261.91c-1.48,1.23-7,8.19-14.91,6.69-5.11-1-2.37,2.07.86,5.32a42.87,42.87,0,0,0,4.9,2.4c3.75-7.3,5.16-8.79,9.1-14.28Z"/><path class="cls-5" d="M162.15,238c.81,6.18,4.82,11.75,7.93,18.84a8.35,8.35,0,0,0,3.26-3.24c.84-1.58,1-4.7.86-7.74h0S161.16,230.45,162.15,238Z"/><path class="cls-4" d="M169.56,231.73c3.13,2.15,16.65,28.53,19.68,31.35,2.16,2-3.17,6.92-6.39,4.92s-17.8-20.29-20.91-27.28S166.43,229.57,169.56,231.73Z"/><path class="cls-16" d="M189.24,263.08c0,1.57-3.41,5.62-6.39,4.92a36.3,36.3,0,0,0,6.26,6.26,71,71,0,0,0,15.44,9.54c4.31,1.93,3.77-2.65,3.77-2.65S194.34,269.31,189.24,263.08Z"/><path class="cls-18" d="M140.05,228.07a3.72,3.72,0,0,0,4.31,3.71c5.42-1.13,6.69-6.26,7.56-9.17.71-2.38.91-8.66,7-12.28,5.84-3.48,8.91-.3,14.05-3.6s7.59-9.34,16.41-9c10.62.4,17.63,16.71,17.63,16.71,1.3,2-3.14,4.17-7.4,3.46a9.74,9.74,0,0,0-10.32,5.63,6.69,6.69,0,0,1-1.74,2.44c-5.08,4.31-6.61-2.25-9.64-.59-4.15,2.28-2.83,8-7,7.85-5.64-3.51-7.17-1.38-9.78-.06-6,3-15.95,9.76-16,12.07-2.35-4.79.84-8.16.82-10C141.23,236.67,137.44,230.34,140.05,228.07Z"/><path class="cls-17" d="M201.91,206.89s-11-12.78-22.9-1.56S160,211.17,160,211.17s6.49,7.71,20.79-4C191.17,198.54,201.91,206.89,201.91,206.89Z"/><path class="cls-17" d="M195.13,210.37a8.2,8.2,0,0,0-6.74,6.53c-1.48,6-4,7.59-6.46,6.39s-7.42-1.39-8.39,2c.09-4.72,4.1-4.52,8.82-4.07,4.24.41,2.43-6,5.08-8.93S192.17,209.28,195.13,210.37Z"/><path class="cls-17" d="M199.82,207.83s-10.65-8.31-24,7.7c-8.26,9.88-14.41,4-14.41,4s7.39,9.89,16-2C183.46,209.17,191.21,205.08,199.82,207.83Z"/><path class="cls-17" d="M172.36,216.11c-7.24-2.56-16-1.73-17.4,7.36-1.51,9.47-3.33,7.64-7,9.61,6,1,8.41-3.76,9.58-8.7C158.82,218.79,164.28,213.72,172.36,216.11Z"/><polygon class="cls-44" points="164.35 309.84 164.35 309.84 164.35 309.84 164.35 309.84"/><path class="cls-16" d="M219.88,280.82c-.72-.5-3.69-2.21-3.69-2.21l-5.38-.31-7.36,3.13a1.53,1.53,0,0,0,0,.43,3.87,3.87,0,0,0,3.94,3.2c2-.05,3.85-.26,3.93-.24,1.49.48,5.36.81,5.38.05.31-.1,2.29.25,2.51.15,1-.43.59-1.23.59-1.23l-6.35-4,2.45.33s1.71.73,2.71,1.3C219.08,281.76,220.65,281.37,219.88,280.82Z"/><path class="cls-45" d="M995.36,261.93a39.78,39.78,0,0,0,20.67,6c11.73,0,21.68-5.88,22.86-6.11a28.44,28.44,0,0,1,2.12,4.1.26.26,0,0,1,0,.27l-18.93,22.38a34.14,34.14,0,0,1-9.73.14l-19-22.77a.26.26,0,0,1,0-.29S995.24,261.87,995.36,261.93Z"/><path class="cls-46" d="M994.26,267a12.85,12.85,0,0,1,1.1-1.88,39.78,39.78,0,0,0,20.67,6c11.73,0,21.68-5.88,22.86-6.11a23.54,23.54,0,0,1,1.23,2.17l.86-1a.26.26,0,0,0,0-.27,28.44,28.44,0,0,0-2.12-4.1c-1.18.23-11.13,6.11-22.86,6.11a39.78,39.78,0,0,1-20.67-6c-.12-.06-2.05,3.69-2.05,3.69a.26.26,0,0,0,0,.29Z"/><path class="cls-45" d="M1042.57,286.77c7.31-3.52,23.3-13,30-27.25.94-2-1.4-10.34-9.08-7.64-4.74,1.68-29.41,10-33.4,15.3-6.44,8.54-6.74,16.32-8.07,21.36C1025.68,290.1,1038.92,288.54,1042.57,286.77Z"/><path class="cls-45" d="M990.89,286.83c-7.31-3.53-28.48-18.78-29.46-27.31-.26-2.18-2.38-8.84,6.73-8.55,4.74,1.67,31.27,11.32,35.75,16.21,5.6,6.11,7.44,16.71,8.06,21.36C1008.35,290.1,994.55,288.59,990.89,286.83Z"/><path class="cls-47" d="M1039.49,282.8a134.41,134.41,0,0,1-17.44-1.77c-8.31-3.39-53.81-28.59-53.81-28.59-7.37-1.95-9.35,4.49-7.12,8.41,5.8,10.21,11.25,16.08,31.85,18.8,6.13.81,17.71,4.27,24,6.61.42,1.44,1.9,3.06,5.34,3.4,1.83.18,12.22,3.91,17.06,3.48,8.06-.71,8-4.3,8.06-5.9S1045.48,283.06,1039.49,282.8Z"/><path class="cls-48" d="M1039.49,282.8a134.41,134.41,0,0,1-17.44-1.77l-.65-.28-5.6,5.08,1.17.43c.42,1.44,1.9,3.06,5.34,3.4,1.83.18,12.22,3.91,17.06,3.48,8.06-.71,8-4.3,8.06-5.9S1045.48,283.06,1039.49,282.8Z"/><path class="cls-49" d="M1039.37,293.14c8.06-.71,8-4.3,8.06-5.9,0-1.41-1.52-3.59-6-4.26-1.13.95-2.83,3.87-3,7.83-9.1.35-17.16-2.85-21.39-4.5.44,1.43,1.92,3,5.32,3.35C1024.14,289.84,1034.53,293.57,1039.37,293.14Z"/><path class="cls-50" d="M1026.57,281.22h0a9.7,9.7,0,0,0-1.45,5.16v.39"/><path class="cls-50" d="M1029,281.61h0a9.7,9.7,0,0,0-1.45,5.16v.39"/><path class="cls-50" d="M1031.51,281.93h0a9.69,9.69,0,0,0-1.44,5.16v.39"/><path class="cls-50" d="M1033.63,282.17h0a9.7,9.7,0,0,0-1.45,5.16v.39"/><path class="cls-20" d="M1022.05,281c-1.26-.52-3.4-1.57-6.09-3h0c-1.92,1.06-4.17,2.32-4.72,2.57s-5,.72-7.88,1.35c4.94,1.35,10.1,3,13.61,4.29a3.78,3.78,0,0,0,.46,1c3.66-2,12.78-3.34,16.39-4.79A105.6,105.6,0,0,1,1022.05,281Z"/><path class="cls-51" d="M968.16,251s24.94,14.44,41.27,23.14a39.09,39.09,0,0,1-.62,7.18c-.56,1.3-4.07,5.83-5.6,7.65-5.88-3.85-8.65-5.59-12.23-6.68-23.88-7.26-26-10.66-31.84-20.87C956.91,257.47,960.79,249,968.16,251Z"/><path class="cls-20" d="M958.89,260.86c0-.09-.07-.18-.1-.28s0-.11,0-.17a2.68,2.68,0,0,1-.07-.27,1.16,1.16,0,0,1,0-.18,2.74,2.74,0,0,1,0-.28c0-.06,0-.13,0-.19l0-.29c0-.06,0-.13,0-.19v-.5c0-.1,0-.2,0-.3a1.5,1.5,0,0,1,0-.2l0-.31a1.29,1.29,0,0,1,0-.19,1.91,1.91,0,0,1,.06-.33,1.16,1.16,0,0,1,0-.18c0-.11,0-.23.08-.34l.05-.17.11-.35L959,256c0-.12.09-.24.14-.36l.06-.14c0-.12.11-.25.17-.37l.06-.12c.06-.13.13-.26.2-.39l.06-.1.25-.4a.21.21,0,0,0,0-.06,5.22,5.22,0,0,1,.33-.45h0l.46.82c6.65,12.5,40.83,24.48,48,26.88h0c-.57,1.3-4.07,5.83-5.6,7.64-5.88-3.85-8.65-5.59-12.23-6.68-23.88-7.26-26-10.66-31.84-20.87A3.54,3.54,0,0,1,959,261Z"/><path class="cls-52" d="M1008.81,281.29a2.66,2.66,0,0,0,.09-.36,71,71,0,0,1-14.26,2.18c-.43,0-.84,0-1.23,0,2.61,1.13,5.3,2.84,9.8,5.79C1004.74,287.12,1008.25,282.59,1008.81,281.29Z"/><path class="cls-47" d="M1065.35,253.17s-46.28,26.32-54.08,28.17a112.85,112.85,0,0,1-17.86,1.81c-6,.07-6.76,2.91-6.72,4.5s3.35,5.18,5.82,5.49c7.61,1,16.77-2.5,18.6-2.68,3.8-.38,5.82-3.12,6-4.65,5.85-2.38,18.58-5.2,23.9-5.85,20.77-2.52,26-9.51,31.85-19.72C1075.14,256.32,1072.72,251.22,1065.35,253.17Z"/><path class="cls-51" d="M1065.44,251.35s-24.94,14.45-41.27,23.14a39.43,39.43,0,0,0,.61,7.19c.57,1.3,4.08,5.83,5.6,7.65,5.88-3.85,8.66-5.6,12.23-6.68,23.89-7.26,26-10.66,31.84-20.87C1076.68,257.86,1072.81,249.4,1065.44,251.35Z"/><path class="cls-20" d="M1074.7,261.25c0-.09.08-.19.11-.28s0-.12,0-.17.05-.18.07-.27a1.29,1.29,0,0,1,0-.19,2.56,2.56,0,0,1,0-.27,1.36,1.36,0,0,1,0-.2,2.64,2.64,0,0,0,0-.28,1.34,1.34,0,0,0,0-.2,2.81,2.81,0,0,0,0-.29,1.34,1.34,0,0,0,0-.2c0-.1,0-.2,0-.3s0-.14,0-.2a2.91,2.91,0,0,0,0-.31l0-.2-.06-.32c0-.06,0-.13,0-.19l-.09-.33a1.21,1.21,0,0,0,0-.18c0-.11-.07-.23-.11-.34a.75.75,0,0,0,0-.16l-.14-.36-.06-.15-.17-.36-.06-.13-.21-.38a.47.47,0,0,1,0-.1c-.08-.14-.17-.27-.26-.41l0-.06-.32-.45h0c-.15.26-.31.54-.46.83-6.65,12.49-40.83,24.47-48,26.88h0c.58,1.31,4.08,5.83,5.6,7.65,5.88-3.85,8.66-5.6,12.23-6.68,23.89-7.26,26-10.66,31.84-20.87a3.6,3.6,0,0,0,.2-.39C1074.67,261.34,1074.68,261.29,1074.7,261.25Z"/><path class="cls-52" d="M1016,267.9a38.26,38.26,0,0,1-3.94-.21v3.16a.8.8,0,0,0,.8.8h6.27a.8.8,0,0,0,.8-.8v-3.16A38.84,38.84,0,0,1,1016,267.9Z"/><path class="cls-53" d="M1019.13,267.69V270a.47.47,0,0,1-.47.48h-5.26a.48.48,0,0,1-.48-.48v-2.29h-.83v3.16a.8.8,0,0,0,.8.8h6.27a.8.8,0,0,0,.8-.8v-3.16Z"/><path class="cls-54" d="M1009.21,202.66c-2.43-1.13-6.47-5.82-7.74-15.75-.93-7.32-1.88-15.63,7.07-17.16,5.62-1.88,19.22-3.39,21.7,6.07,1.2,11.12-2.48,27.36-8,26.79-.2,3.52-6.14,2.61-7.65,3C1010.76,206.63,1009.21,202.66,1009.21,202.66Z"/><path class="cls-55" d="M987.73,260.63,995,267.4l41.57.13,7.45-6.9a4.71,4.71,0,0,0,1.51-3.45H986.23A4.7,4.7,0,0,0,987.73,260.63Z"/><polygon class="cls-56" points="986.23 257.18 997.25 266.22 1035.79 266.22 1045.55 257.18 986.23 257.18"/><path class="cls-21" d="M1057.11,242c-.78-4.87-5.94-27.48-13.41-33.1-10.57-8-32-10.58-54.36-.69-7.76,3.85-11.39,29.22-12.41,34.73-1.91,10.35,14,13.84,16.35,14.29,4.69.89,6.1-1.45,6.77-3.21,1.17-3.05-8.56-8.29-9.17-11.64,2.57-12.59.73-12.07,0-17.36.76,3.59-.43,5.09,3.14,12.29.69,1.4,2.07,20,1.31,24.67-.29,1.83,44,1.73,43.53-.14-1.08-4.51-.22-24.16.28-25.39,2.07-5.14,2.24-10.39,2.51-11.88-.48,3-2.14,3.47,0,16.13-2.53,2.41-8.92,11.2-7.86,14.29.62,1.78,2.69,4.47,5.4,2.23C1041.27,255.47,1058.79,252.44,1057.11,242Z"/><path class="cls-57" d="M1024.69,209.61a3.18,3.18,0,0,0,1-2.78,37.84,37.84,0,0,1-.42-9.08c.53-3.53-18-1.49-18-1.49s-.1,6.88-.61,10.29a3.19,3.19,0,0,0,.63,2.48,12.49,12.49,0,0,0,8.64,3.94A11.79,11.79,0,0,0,1024.69,209.61Z"/><path class="cls-47" d="M1029.1,187.6h0a1.44,1.44,0,0,1,1.31,1c.4,1.87-.38,5.71-1.34,6.56a4.8,4.8,0,0,1-2.06.93Z"/><path class="cls-20" d="M1028.77,191.94c-.16,1.26-.46,1.68-1,1.61s-.87-1.14-.71-2.4.73-2.23,1.27-2.16S1028.92,190.69,1028.77,191.94Z"/><path class="cls-47" d="M1003,187.6h0a1.63,1.63,0,0,0-1.44,1c-.45,1.71,0,5,1.19,6.13a4.87,4.87,0,0,0,1.77,1Z"/><path class="cls-20" d="M1003,191.86c.15,1.25.44,1.76,1,1.69s.87-1.14.71-2.4-.72-2.23-1.27-2.16S1002.82,190.6,1003,191.86Z"/><path class="cls-47" d="M1025.94,184.37c1.4.68.79,7.25.79,8.85,0,.63.69.34,1,.33a36.53,36.53,0,0,1-.82,8.11c-.44,1.52-7,6.46-10.91,6.46s-11-5.84-11.37-7.37c-.52-2.13-.44-3.83-.69-7.2.54.07,1,.09,1-.37,0-.69-1-9,2.94-10.81C1010.47,184.23,1023.17,185.09,1025.94,184.37Z"/><path class="cls-20" d="M991,224.52a1.13,1.13,0,0,1-.11.5l0,0h0c.44.08-.43,5.09,3.14,12.29a44.3,44.3,0,0,1,.93,7.37c2-4,5.5-5.64,10.64-6.28C1002.57,237.88,994.05,237.26,991,224.52Z"/><path class="cls-20" d="M1039.17,236.4c2.07-5.14,2.24-10.39,2.51-11.88-2.51,11.88-10.84,13.36-16.9,14.06,2.28.4,11.08,2.45,13.59,13.86C1038.39,245.4,1038.85,237.18,1039.17,236.4Z"/><path class="cls-55" d="M997.24,268.18h37.3a3.55,3.55,0,0,0,3.55-3.54h-44.4A3.55,3.55,0,0,0,997.24,268.18Z"/><path class="cls-56" d="M1038.09,263.76H993.72L987,239.09a2.11,2.11,0,0,1,2-2.66h53.78a2.11,2.11,0,0,1,2,2.66Z"/><path class="cls-55" d="M1038.09,264.64H993.72L987,240a2.11,2.11,0,0,1,2-2.66h53.78a2.1,2.1,0,0,1,2,2.66Z"/><path class="cls-11" d="M1019.82,253.59c0,1.19-1.85,2.16-4.14,2.16s-4.14-1-4.14-2.16,1.85-2.17,4.14-2.17S1019.82,252.39,1019.82,253.59Z"/><path class="cls-48" d="M1012.31,281c-.4.14-.75.25-1,.32a112.85,112.85,0,0,1-17.86,1.81c-6,.07-6.76,2.91-6.72,4.5s3.35,5.18,5.82,5.49c7.61,1,16.77-2.5,18.6-2.68,3.8-.38,5.82-3.12,6-4.65,0,0-3.62,1-2.85-.79a2.89,2.89,0,0,0-1.95-3.9C1012.24,281.09,1012.21,281.06,1012.31,281Z"/><path class="cls-49" d="M994.94,291.48a10.69,10.69,0,0,0-.9-8.34h-.63c-6,.07-6.76,2.91-6.72,4.5s3.35,5.18,5.82,5.49c7.61,1,16.77-2.5,18.6-2.68a7.57,7.57,0,0,0,4.24-1.79C1010.23,290,994.85,293.88,994.94,291.48Z"/><path class="cls-50" d="M1007.35,281.7h0a9.64,9.64,0,0,1,1.45,5.15v.39"/><path class="cls-50" d="M1004.89,282.09h0a9.67,9.67,0,0,1,1.45,5.15v.39"/><path class="cls-50" d="M1002.4,282.41h0a9.64,9.64,0,0,1,1.45,5.15V288"/><path class="cls-50" d="M1000.29,282.65h0a9.64,9.64,0,0,1,1.45,5.15v.39"/><path class="cls-58" d="M717,96l-11.55,9.55L689.83,84.77,685,88.84s13.12,29.45,17.48,30.22c6,.17,23.27-13.33,23.27-13.33Z"/><path class="cls-59" d="M748.52,277.62c1,2.75.22,4.89.17,8.59,0,2.46.54,5.47,7.11,4.14,6.08-1.22,5-5,4.83-5.57s-2.67-6.44-2.67-6.44Z"/><path class="cls-59" d="M710.47,277.33l-.34,7.11a2.51,2.51,0,0,1-2.51,2.39l-13.13,0-6.93-.35a3,3,0,0,1-2.63-2.34h0c-.11-.51,13.22-4.92,13.22-4.92l2.84-2.36Z"/><path class="cls-60" d="M687,285.45a2.93,2.93,0,0,1-1.93-1c.38,1.08.5,2.29,1.66,2.39l20.92,0a2.5,2.5,0,0,0,2.33-1.6Z"/><path class="cls-61" d="M759,149.21l1.33,3.32.3.74a33.23,33.23,0,0,1,.09,24h0l-1,103.72-11.13.14-9.93-103.57-27,103.78-6.14.12-8.45-2.67,27-129.58Z"/><g class="cls-39"><polygon points="730.02 160.45 732.01 179.49 711.66 281.34 738.65 177.56 733.43 175.06 730.02 160.45"/></g><path class="cls-62" d="M761,156.05H726.27a.84.84,0,0,1-.82-1l.66-3.06a.83.83,0,0,1,.82-.66h33.31a.93.93,0,0,1,.9.68l.79,2.87A.94.94,0,0,1,761,156.05Z"/><path class="cls-3" d="M716.05,96.69,723,109.14l5.45,42.18h28.87l7.12-29.86c.64-1.58,11.85-11,11.09-14.23a34.13,34.13,0,0,0-8.83-15.64c-3.95-3.74-11.07-4.79-14.31-4.79l-21,1C724.67,87.76,716.05,96.69,716.05,96.69Z"/><path class="cls-1" d="M759.6,111.79s2.36,7.27,4.81,9.67l-2.67,12-5-3.34Z"/><path class="cls-58" d="M729,56.18s-4,11.05-4.47,12.89c-.56,2.44,2.08,1.77,2.29,2.94.27,1.51.28,3.77.42,5.23.17,1.86,1,3.86,4.93,3.44a30.72,30.72,0,0,0,4.8-.81c.36.48-.28,4.53-1.36,7.29-.45,1.15-6.57,7.16,3.79,8,5.78.46,11.46-5.16,11.46-5.16a3.58,3.58,0,0,0,1.47-3.19l-.73-7.7S748.9,45,729,56.18Z"/><path class="cls-1" d="M742.07,79.1a14,14,0,0,1-6.84,8.66h0a3.56,3.56,0,0,0,.41-.6c1.08-2.76,1.72-6.81,1.36-7.29Z"/><path class="cls-63" d="M722.74,54.32c0,1.06,1.93,4.7,9,2.82s7.79,3.59,7.79,3.59V68h1.88s.59-4.1,1.25-5c.49-.69,2.69-.49,3.69.24,2.34,1.71-1.81,7.77-1.81,7.77l7.14,8.12s5.07-14.8,4.44-19C755.6,57,751.67,46,742.3,46c-4.16,0-13.08,2.91-18.56,2.21a9,9,0,0,0,2.52,5.27C727.2,54.13,725.77,54.32,722.74,54.32Z"/><path class="cls-1" d="M742.29,46l-.82,0c-2.86,1.74-5.51,4.55-9,5.83-5,1.87-6.49-.61-6.76-.79a7.52,7.52,0,0,1-1.88-2.84h-.12a8.92,8.92,0,0,0,2.52,5.26c.27.18,1.73,2.66,6.76.79s7.26-7,13.9-7.27A10.93,10.93,0,0,0,742.29,46Z"/><path class="cls-30" d="M754.62,86.93a218.64,218.64,0,0,0-9.21,21.44c-2.86,8.16-9.77,17.65-9.77,17.65l7,32.74L765,152.5s-3.83-17.41,0-31.63a.27.27,0,0,0-.28-.34c-8.57.26-11.83-13.78-11.13-19.52.4-3.33,2.53-11.29,6.41-13C758.77,87.17,754.62,86.93,754.62,86.93Z"/><path class="cls-30" d="M735.39,87.55s-4.67,1.71-6.49,23.65c-.43,5.16,3.69,13.48,3.69,13.48l-4.82,33.2-5.52-5.9s.28-28.75,1.86-40.78c2.7-20.55,6.39-23.44,6.39-23.44Z"/><path class="cls-3" d="M743.74,129.41a1.67,1.67,0,1,1-1.67-1.68A1.68,1.68,0,0,1,743.74,129.41Z"/><path class="cls-3" d="M744.7,136.57a1.67,1.67,0,1,1-1.67-1.68A1.68,1.68,0,0,1,744.7,136.57Z"/><path class="cls-3" d="M745.41,141.83a1.67,1.67,0,1,1-1.67-1.69A1.68,1.68,0,0,1,745.41,141.83Z"/><path class="cls-60" d="M755.66,289a15.83,15.83,0,0,0,5-1.87c-.43,1.21-1.66,2.55-4.82,3.18-3.81.77-5.6.08-6.42-1.11A16,16,0,0,0,755.66,289Z"/><path class="cls-58" d="M691.35,86.8s-.45-9.42-1.67-10.56c-.54-.49-6.19-2.9-6.19-2.9h-5s-.29,2,3.93,3c.68.15-3.06.49-3.08,1.29a25.59,25.59,0,0,0,.08,5.38c.65,3,5.89,6.42,7.16,9.12S691.35,86.8,691.35,86.8Z"/><path class="cls-64" d="M683.4,75.8l-6.49-1.53a1.34,1.34,0,0,0-.62,2.61l4.47,1.05Z"/><path class="cls-58" d="M762,117.65l6.8,15.76-11,25.35-5.43,5.09s-1.72,4.71,6.13,7.47c3.33-2.37,3.46-7.64,3.46-7.64s16.48-24.48,18.26-28.79-6.88-26-6.88-26Z"/><line class="cls-2" x1="931.49" y1="181.39" x2="912.81" y2="181.39"/><line class="cls-2" x1="987.34" y1="128.36" x2="942.17" y2="128.36"/><line class="cls-2" x1="1016.29" y1="137" x2="971.95" y2="137"/><line class="cls-2" x1="861.38" y1="103.85" x2="817.04" y2="103.85"/><line class="cls-2" x1="917.15" y1="172.03" x2="874.75" y2="172.03"/><line class="cls-2" x1="989.86" y1="116.13" x2="1002.14" y2="116.13"/><line class="cls-2" x1="861.48" y1="116.13" x2="873.75" y2="116.13"/><line class="cls-2" x1="919.64" y1="94.52" x2="931.92" y2="94.52"/><line class="cls-2" x1="894.38" y1="142.85" x2="903.23" y2="136.48"/><line class="cls-2" x1="894.38" y1="142.85" x2="903.23" y2="149.22"/><line class="cls-2" x1="932.33" y1="142.85" x2="923.47" y2="136.48"/><line class="cls-2" x1="932.33" y1="142.85" x2="923.47" y2="149.22"/><line class="cls-2" x1="919.22" y1="131.12" x2="908.66" y2="152.76"/><line class="cls-2" x1="949.88" y1="172.11" x2="955.33" y2="168.19"/><line class="cls-2" x1="949.88" y1="172.11" x2="955.33" y2="176.04"/><line class="cls-2" x1="973.26" y1="172.11" x2="967.8" y2="168.19"/><line class="cls-2" x1="973.26" y1="172.11" x2="967.8" y2="176.04"/><line class="cls-2" x1="965.18" y1="164.89" x2="958.68" y2="178.22"/><line class="cls-2" x1="874.68" y1="88.03" x2="880.13" y2="84.1"/><line class="cls-2" x1="874.68" y1="88.03" x2="880.13" y2="91.95"/><line class="cls-2" x1="898.06" y1="88.03" x2="892.6" y2="84.1"/><line class="cls-2" x1="898.06" y1="88.03" x2="892.6" y2="91.95"/><line class="cls-2" x1="889.98" y1="80.81" x2="883.48" y2="94.13"/><line class="cls-2" x1="369.37" y1="225.18" x2="348.4" y2="225.18"/><line class="cls-2" x1="336.26" y1="208.47" x2="315.29" y2="208.47"/><line class="cls-2" x1="332.02" y1="139.56" x2="311.06" y2="139.56"/><path class="cls-2" d="M338.59,167.81a22.78,22.78,0,1,1,23.13,22.77v11.94l-10.17-14.15A22.78,22.78,0,0,1,338.59,167.81Z"/><circle class="cls-3" cx="361.37" cy="168.31" r="2.76"/><circle class="cls-3" cx="350.58" cy="168.31" r="2.76"/><path class="cls-3" d="M369.4,168.31a2.76,2.76,0,1,0,2.76-2.76A2.76,2.76,0,0,0,369.4,168.31Z"/></g></svg>