<svg id="Layer_1" data-name="Layer 1" xmlns="http://www.w3.org/2000/svg" viewBox="0 0 149.91 322.67"><defs><style>.cls-1{fill:#565656;}.cls-2{fill:#d82b2b;}.cls-3{fill:#f99716;}.cls-4{fill:#8ecc36;}</style></defs><title>traffic_light</title><polygon class="cls-1" points="149.91 0 149.7 0 129.88 0 19.82 0 0.14 0 0 0 0 51.49 19.82 51.49 19.82 19.82 129.88 19.82 129.88 51.49 149.7 51.49 149.7 19.82 149.91 19.82 149.91 0"/><polygon class="cls-1" points="149.7 270.91 149.7 239.25 129.88 239.25 129.88 270.91 19.82 270.91 19.82 239.25 0 239.25 0 290.73 0.14 290.73 19.82 290.73 61.26 290.73 61.26 322.67 94.3 322.67 94.3 290.73 129.88 290.73 149.7 290.73 149.91 290.73 149.91 270.91 149.7 270.91"/><path class="cls-2" d="M109.17,64.43a35.8,35.8,0,1,1-35.8-35.79A35.79,35.79,0,0,1,109.17,64.43Z"/><path class="cls-3" d="M109.17,141a35.8,35.8,0,1,1-35.8-35.79A35.79,35.79,0,0,1,109.17,141Z"/><path class="cls-4" d="M109.17,217.5a35.8,35.8,0,1,1-35.8-35.79A35.8,35.8,0,0,1,109.17,217.5Z"/></svg>